Official Game of Thrones Season 3 Extended Trailer in 720p

THE SONG FROM THE TRAILER
 
http://thepiratebay.se/torrent/8217068


CATCH UP BEFORE SEASON 3 AIRS

SEASON 1:
 
http://thepiratebay.se/torrent/8196355/

SEASON 2:
 
http://thepiratebay.se/torrent/8196359


Video
ID                                       : 1
Format                                   : AVC
Format/Info                              : Advanced Video Codec
Format profile                           : High@L3.1
Format settings, CABAC                   : Yes
Format settings, ReFrames                : 1 frame
Codec ID                                 : avc1
Codec ID/Info                            : Advanced Video Coding
Duration                                 : 1mn 20s
Bit rate                                 : 1 883 Kbps
Maximum bit rate                         : 3 863 Kbps
Width                                    : 1 280 pixels
Height                                   : 720 pixels
Display aspect ratio                     : 16:9
Frame rate mode                          : Constant
Frame rate                               : 29.970 fps
Color space                              : YUV
Chroma subsampling                       : 4:2:0
Bit depth                                : 8 bits
Scan type                                : Progressive
Bits/(Pixel*Frame)                       : 0.068
Stream size                              : 18.0 MiB (91%)
Tagged date                              : UTC 2013-03-01 19:00:21

Audio
ID                                       : 2
Format                                   : AAC
Format/Info                              : Advanced Audio Codec
Format profile                           : LC
Codec ID                                 : 40
Duration                                 : 1mn 20s
Bit rate mode                            : Variable
Bit rate                                 : 192 Kbps
Maximum bit rate                         : 201 Kbps
Channel(s)                               : 2 channels
Channel positions                        : Front: L R
Sampling rate                            : 44.1 KHz
Compression mode                         : Lossy
Stream size                              : 1.83 MiB (9%)
Title                                    : IsoMedia File Produced by Google, 5-11-2011
Encoded date                             : UTC 2013-03-01 19:00:21
Tagged date                              : UTC 2013-03-01 19:00:21
